name symmetric_stride_kinematics_IKTD_Minus_2.mot
datacolumns 38
datarows 5
range 1.56534491 1.56951917
endheader
                time	/jointset/ground_pelvis/pelvis_tilt/value	/jointset/ground_pelvis/pelvis_list/value	/jointset/ground_pelvis/pelvis_rotation/value	/jointset/ground_pelvis/pelvis_tx/value	/jointset/ground_pelvis/pelvis_ty/value	/jointset/ground_pelvis/pelvis_tz/value	/jointset/hip_r/hip_flexion_r/value	/jointset/hip_r/hip_adduction_r/value	/jointset/hip_r/hip_rotation_r/value	/jointset/knee_r/knee_angle_r/value	/jointset/ankle_r/ankle_angle_r/value	/jointset/subtalar_r/subtalar_angle_r/value	/jointset/mtp_r/mtp_angle_r/value	/jointset/hip_l/hip_flexion_l/value	/jointset/hip_l/hip_adduction_l/value	/jointset/hip_l/hip_rotation_l/value	/jointset/knee_l/knee_angle_l/value	/jointset/ankle_l/ankle_angle_l/value	/jointset/subtalar_l/subtalar_angle_l/value	/jointset/mtp_l/mtp_angle_l/value	/jointset/back/lumbar_extension/value	/jointset/back/lumbar_bending/value	/jointset/back/lumbar_rotation/value	/jointset/acromial_r/arm_flex_r/value	/jointset/acromial_r/arm_add_r/value	/jointset/acromial_r/arm_rot_r/value	/jointset/elbow_r/elbow_flex_r/value	/jointset/radioulnar_r/pro_sup_r/value	/jointset/radius_hand_r/wrist_flex_r/value	/jointset/radius_hand_r/wrist_dev_r/value	/jointset/acromial_l/arm_flex_l/value	/jointset/acromial_l/arm_add_l/value	/jointset/acromial_l/arm_rot_l/value	/jointset/elbow_l/elbow_flex_l/value	/jointset/radioulnar_l/pro_sup_l/value	/jointset/radius_hand_l/wrist_flex_l/value	/jointset/radius_hand_l/wrist_dev_l/value	
          1.56534491	         -9.90652841	         -6.37698562	         14.37350625	         18.53864147	          0.96131488	          0.30658588	         85.83994823	        -11.20705155	         -0.68887080	        -91.90819156	         -8.91159831	        -23.43160680	         15.66674642	         -0.24097340	        -15.78661654	          8.49343740	        -55.16597219	        -30.07050249	        -14.12527860	         -7.63401989	         -9.63514416	          3.90067839	        -10.79801594	        -74.23403737	          0.95536925	         -0.00000378	         74.98203695	         48.71253624	        -14.56328586	          7.85104747	         89.17378983	          0.80137976	         -0.00044962	         96.11541184	         83.38199426	        -13.20431906	          7.84990295	
          1.56599214	         -9.89715114	         -6.37735046	         14.33114092	         18.54598337	          0.96160177	          0.30670575	         85.74290532	        -11.24569037	         -0.77356124	        -91.11118680	         -9.14278533	        -23.44921041	         15.66676229	         -0.24182194	        -15.76148416	          8.56797927	        -55.57387194	        -30.13364546	        -14.01100232	         -7.51192334	         -9.70924461	          3.97372763	        -10.78842176	        -74.12821753	          0.96389414	          0.00000000	         74.45280152	         48.64322310	        -14.66805305	          7.83113814	         89.18467875	          0.75165925	         -0.00121940	         95.85421966	         83.43440536	        -13.18248636	          7.82994647	
          1.56803710	         -9.83844868	         -6.37218235	         14.19722507	         18.56916755	          0.96257272	          0.30709585	         85.35394977	        -11.35738726	         -1.05601508	        -88.56840556	         -9.85159984	        -23.48034676	         15.66682468	         -0.26250110	        -15.67444661	          8.79334971	        -56.86563957	        -30.27934265	        -13.71653267	         -7.15791350	         -9.98130524	          4.20890641	        -10.75995236	        -73.76043781	          0.96389414	         -0.00712197	         72.85240460	         48.44881430	        -15.00626953	          7.76816575	         89.16979563	          0.55129948	         -0.00485570	         95.10219082	         83.60825379	        -13.12572175	          7.76689235	
          1.56951917	         -9.76568077	         -6.36076571	         14.10055606	         18.58596294	          0.96333998	          0.30738791	         84.99327592	        -11.42793197	         -1.27229475	        -86.70861645	        -10.33889164	        -23.47581288	         15.66683300	         -0.29858675	        -15.60409077	          8.94482597	        -57.80186801	        -30.34017401	        -13.58203490	         -6.93987869	        -10.21729186	          4.38163127	        -10.74144432	        -73.46395859	          0.93900359	         -0.02188267	         71.76158004	         48.33276574	        -15.25650971	          7.72248129	         89.11232177	          0.36501175	         -0.00602374	         94.62669463	         83.74150035	        -13.09620835	          7.72119424	
          1.56951917	         -9.76568077	         -6.36076571	         14.10055606	         18.58596294	          0.96333998	          0.30738791	         84.99327592	        -11.42793197	         -1.27229475	        -86.70861645	        -10.33889164	        -23.47581288	         15.66683300	         -0.29858675	        -15.60409077	          8.94482597	        -57.80186801	        -30.34017401	        -13.58203490	         -6.93987869	        -10.21729186	          4.38163127	        -10.74144432	        -73.46395859	          0.93900359	         -0.02188267	         71.76158004	         48.33276574	        -15.25650971	          7.72248129	         89.11232177	          0.36501175	         -0.00602374	         94.62669463	         83.74150035	        -13.09620835	          7.72119424	
